<svg width="680" height="340" viewBox="0 0 680 340" fill="none" xmlns="http://www.w3.org/2000/svg">
<rect x="1" y="1" width="678" height="338" rx="4" fill="#154E05" stroke="white" stroke-width="2"/>
<path d="M340.511 0V340" stroke="white" stroke-width="2"/>
<path d="M399.842 169.55C399.842 198.439 373.174 222.069 340 222.069C306.826 222.069 280.158 198.439 280.158 169.55C280.158 140.662 306.826 117.032 340 117.032C373.174 117.032 399.842 140.662 399.842 169.55Z" stroke="white" stroke-width="2"/>
<path d="M0 108.836H54.1955V232.963H0" stroke="white" stroke-width="2"/>
<path d="M0 69.2592H109.414V271.64H0" stroke="white" stroke-width="2"/>
<path d="M109.414 135.82C116.219 139.277 121.877 144.243 125.824 150.222C129.771 156.201 131.869 162.985 131.909 169.899C131.95 176.813 129.931 183.616 126.055 189.631C122.178 195.645 116.579 200.661 109.814 204.18" stroke="white" stroke-width="2"/>
<path d="M680 108.836H625.805V232.963H680" stroke="white" stroke-width="2"/>
<path d="M680 69.2592L570.586 69.2592V271.64H680" stroke="white" stroke-width="2"/>
<path d="M570.586 135.82C563.781 139.277 558.123 144.243 554.176 150.222C550.229 156.201 548.131 162.985 548.091 169.899C548.05 176.813 550.069 183.616 553.945 189.631C557.822 195.645 563.421 200.661 570.186 204.18" stroke="white" stroke-width="2"/>
</svg>
